External Loads File
version=1
nRows=77
nColumns=13
Range=5.000000e-03-10 seconds
endheader
time 	forceRightX 	forceRightY 	forceRightZ 	pointRightX 	pointRightY 	pointRightZ 	forceLeftX 	forceLeftY 	forceLeftZ 	pointLeftX 	pointLeftY 	pointLeftZ 		
7.505000 -127.952830 -7.558287 -0.000000 0.322769 0.511503 -0.118099 159.052389 257.978801 -0.000000 0.235041 0.161502 -0.359348
7.510000 -130.774542 21.032489 -0.000000 0.330430 0.507500 -0.117551 147.743463 210.168161 -0.000000 0.226886 0.165122 -0.359081
7.515000 -135.688720 52.952216 -0.000000 0.337727 0.502509 -0.116884 135.557315 167.293669 -0.000000 0.218869 0.169260 -0.358792
7.520000 -143.166070 88.517883 -0.000000 0.344534 0.496510 -0.116335 123.179690 130.145892 -0.000000 0.211008 0.173943 -0.358534
7.525000 -153.303501 128.123275 -0.000000 0.351298 0.490050 -0.115575 111.383095 98.995126 -0.000000 0.203299 0.179392 -0.358328
7.530000 -166.037536 171.729247 -0.000000 0.357763 0.482861 -0.115066 100.627973 73.936530 -0.000000 0.195609 0.185160 -0.358187
7.535000 -181.144546 218.939526 -0.000000 0.364025 0.475076 -0.114756 91.294922 54.721195 -0.000000 0.188291 0.191439 -0.357951
7.540000 -198.390891 268.888107 -0.000000 0.370012 0.466850 -0.114436 83.611198 40.862249 -0.000000 0.181388 0.197920 -0.357744
7.545000 -216.606025 320.979925 -0.000000 0.375703 0.458160 -0.114231 77.761843 31.442308 -0.000000 0.174580 0.205278 -0.357610
7.550000 -235.380509 373.752949 -0.000000 0.381129 0.448986 -0.114106 73.629870 25.753953 -0.000000 0.168254 0.213081 -0.357437
7.555000 -254.033557 425.922416 -0.000000 0.386272 0.439585 -0.114070 71.047495 22.971318 -0.000000 0.162366 0.221382 -0.357102
7.560000 -271.516002 476.562301 -0.000000 0.390977 0.429626 -0.113915 69.778261 22.266750 -0.000000 0.156877 0.230143 -0.357323
7.565000 -286.739451 524.995444 -0.000000 0.396032 0.419566 -0.114066 69.530304 22.930396 -0.000000 0.151895 0.239287 -0.357030
7.570000 -300.161132 570.009294 -0.000000 0.399898 0.409125 -0.113495 69.934541 24.581206 -0.000000 0.147421 0.248755 -0.356924
7.575000 -310.088223 611.866710 -0.000000 0.403837 0.398661 -0.113952 70.743031 26.663322 -0.000000 0.143419 0.258588 -0.356710
7.580000 -317.208361 649.838485 -0.000000 0.407065 0.388248 -0.113963 71.650243 29.002469 -0.000000 0.139980 0.268685 -0.356652
7.585000 -320.275435 684.430502 -0.000000 0.409933 0.377508 -0.114192 72.484617 31.279228 -0.000000 0.137207 0.278957 -0.356588
7.590000 -318.982217 715.883636 -0.000000 0.412268 0.366627 -0.114218 73.098588 33.357401 -0.000000 0.134987 0.289590 -0.356539
7.595000 -313.844131 744.267883 -0.000000 0.414050 0.355629 -0.114151 73.404084 35.223343 -0.000000 0.133218 0.300312 -0.356450
7.600000 -305.352183 769.861712 -0.000000 0.415194 0.344617 -0.114008 73.425083 36.852753 -0.000000 0.132160 0.311133 -0.356284
7.605000 -294.047954 793.054895 -0.000000 0.415768 0.333894 -0.113626 73.266720 38.156618 -0.000000 0.131569 0.322182 -0.356280
7.610000 -278.533628 814.922370 -0.000000 0.415872 0.322609 -0.113534 73.159376 38.765448 -0.000000 0.131609 0.333227 -0.356161
7.615000 -261.788817 834.838885 -0.000000 0.415434 0.311703 -0.113478 73.088562 38.641449 -0.000000 0.132103 0.344290 -0.356125
7.620000 -242.095088 853.608232 -0.000000 0.414694 0.300799 -0.113493 73.165608 37.312380 -0.000000 0.133117 0.355728 -0.356148
7.625000 -222.160943 870.428885 -0.000000 0.413466 0.290160 -0.112374 73.191748 34.721383 -0.000000 0.134903 0.366837 -0.356043
7.630000 -200.228725 885.584651 -0.000000 0.411116 0.279722 -0.113352 73.090598 30.485247 -0.000000 0.137181 0.377952 -0.355934
7.635000 -177.097887 898.504507 -0.000000 0.408283 0.269504 -0.113166 72.636612 24.516784 -0.000000 0.139967 0.388905 -0.355865
7.640000 -152.945685 908.760105 -0.000000 0.404937 0.259469 -0.113439 71.620071 16.763217 -0.000000 0.143234 0.399578 -0.355767
7.645000 -127.530907 916.022908 -0.000000 0.400979 0.249768 -0.113065 69.850074 7.253180 -0.000000 0.146982 0.410144 -0.355612
7.650000 -101.196856 919.928215 -0.000000 0.396568 0.240307 -0.113153 67.148382 -3.791502 -0.000000 0.151286 0.420451 -0.355519
7.655000 -74.381385 920.189571 -0.000000 0.391475 0.231320 -0.113053 63.380255 -15.967703 -0.000000 0.156114 0.430424 -0.355503
7.660000 -46.965873 916.641476 -0.000000 0.385823 0.222705 -0.113013 58.463797 -28.726292 -0.000000 0.161660 0.439941 -0.355286
7.665000 -20.016535 909.114412 -0.000000 0.379751 0.214473 -0.112987 52.416713 -41.313566 -0.000000 0.167597 0.448970 -0.357083
7.670000 5.486838 897.570390 -0.000000 0.373200 0.206682 -0.112882 45.333846 -52.971514 -0.000000 0.173635 0.457461 -0.356198
7.675000 30.502385 882.016213 -0.000000 0.366227 0.199507 -0.112756 37.220517 -63.083596 -0.000000 0.180278 0.465586 -0.357204
7.680000 54.422683 862.465592 -0.000000 0.358859 0.192904 -0.112635 28.163644 -71.006897 -0.000000 0.187485 0.473104 -0.357182
7.685000 76.768659 839.007525 -0.000000 0.351164 0.186897 -0.112451 18.274149 -76.216655 -0.000000 0.195092 0.480084 -0.357048
7.690000 97.254773 811.780861 -0.000000 0.343103 0.181419 -0.112297 7.688421 -78.356268 -0.000000 0.202989 0.486411 -0.356592
7.695000 115.103396 781.073567 -0.000000 0.334827 0.176543 -0.112139 -3.353917 -77.303303 -0.000000 0.211027 0.491938 -0.357071
7.700000 131.784208 746.929524 -0.000000 0.326220 0.172361 -0.111939 -14.792515 -73.230448 -0.000000 0.219740 0.496642 -0.357007
7.705000 146.944333 709.641898 -0.000000 0.317351 0.168656 -0.111717 -26.355781 -66.592302 -0.000000 0.228736 0.501076 -0.357044
7.710000 159.438981 669.764175 -0.000000 0.308227 0.165648 -0.111482 -37.681855 -58.142574 -0.000000 0.237904 0.503404 -0.357043
7.715000 170.731152 627.340410 -0.000000 0.298794 0.163190 -0.111070 -48.654484 -48.628430 -0.000000 0.247017 0.507852 -0.356966
7.720000 179.141579 583.228084 -0.000000 0.289467 0.161490 -0.110920 -58.914760 -38.951515 -0.000000 0.256405 0.510106 -0.357108
7.725000 185.473359 537.708283 -0.000000 0.279958 0.160485 -0.110720 -68.355568 -29.718647 -0.000000 0.265801 0.511512 -0.357492
7.730000 189.597497 491.363414 -0.000000 0.270341 0.160068 -0.110522 -76.903671 -21.385490 -0.000000 0.275064 0.512358 -0.357209
7.735000 191.653848 444.749006 -0.000000 0.260714 0.160396 -0.110286 -84.672535 -14.102528 -0.000000 0.284223 0.512465 -0.357293
7.740000 191.692939 398.490784 -0.000000 0.251180 0.161527 -0.110091 -91.888026 -7.725998 -0.000000 0.293213 0.511896 -0.357620
7.745000 190.068149 353.089717 -0.000000 0.241679 0.163264 -0.109910 -98.768454 -1.748054 -0.000000 0.302025 0.510237 -0.357572
7.750000 186.886911 309.148653 -0.000000 0.232334 0.165746 -0.109812 -105.462126 4.525205 -0.000000 0.310704 0.508040 -0.358570
7.755000 182.104908 267.382410 -0.000000 0.223246 0.168776 -0.109666 -112.139182 11.826134 -0.000000 0.318996 0.505097 -0.358842
7.760000 176.321772 228.101345 -0.000000 0.214395 0.172649 -0.109557 -119.038077 21.113212 -0.000000 0.327082 0.501379 -0.359145
7.765000 169.835566 191.727616 -0.000000 0.205800 0.177019 -0.109463 -126.460201 33.207125 -0.000000 0.334849 0.496447 -0.359505
7.770000 162.822922 158.699691 -0.000000 0.197516 0.181967 -0.109430 -134.754017 48.776640 -0.000000 0.342335 0.491173 -0.359708
7.775000 155.594569 129.238564 -0.000000 0.189466 0.187222 -0.109403 -144.244801 68.497343 -0.000000 0.349344 0.485155 -0.360129
7.780000 148.514597 103.336830 -0.000000 0.181748 0.193169 -0.109411 -155.125556 93.067885 -0.000000 0.355992 0.478498 -0.360614
7.785000 141.784907 80.978935 -0.000000 0.174326 0.199763 -0.109398 -167.484067 122.901149 -0.000000 0.362301 0.471575 -0.361021
7.790000 135.715037 61.721437 -0.000000 0.167209 0.206872 -0.109360 -180.924036 158.474841 -0.000000 0.368087 0.463201 -0.361625
7.795000 130.288761 45.485798 -0.000000 0.160474 0.214545 -0.109434 -195.202972 199.343462 -0.000000 0.373654 0.454786 -0.362056
7.800000 125.590966 31.773666 -0.000000 0.154102 0.222609 -0.109557 -209.417206 245.120740 -0.000000 0.378886 0.445528 -0.362284
7.805000 121.518618 20.215813 -0.000000 0.148214 0.231324 -0.109752 -222.508765 294.869765 -0.000000 0.383993 0.435783 -0.362596
7.810000 117.858966 10.519240 -0.000000 0.142762 0.240379 -0.109925 -233.371324 347.245289 -0.000000 0.388682 0.425182 -0.362931
7.815000 114.327975 2.833779 -0.000000 0.137807 0.249730 -0.110118 -242.281107 399.885661 -0.000000 0.392797 0.414882 -0.363304
7.820000 110.712980 -3.121820 -0.000000 0.133544 0.259417 -0.110294 -248.578465 451.329920 -0.000000 0.396651 0.404679 -0.363499
7.825000 106.836019 -7.641653 -0.000000 0.129763 0.269352 -0.110537 -251.387695 500.501922 -0.000000 0.400172 0.394062 -0.363533
7.830000 102.644500 -10.637397 -0.000000 0.126586 0.279575 -0.110737 -251.661006 545.795931 -0.000000 0.403404 0.383674 -0.363385
7.835000 98.148991 -12.552564 -0.000000 0.123978 0.290007 -0.110873 -248.069295 587.162921 -0.000000 0.406254 0.372509 -0.363403
7.840000 93.488323 -13.182790 -0.000000 0.121942 0.300605 -0.110998 -243.107601 623.263417 -0.000000 0.408770 0.361732 -0.363251
7.845000 88.750637 -12.833151 -0.000000 0.120517 0.311344 -0.111222 -236.557125 654.406081 -0.000000 0.410758 0.350883 -0.362963
7.850000 84.018750 -11.691490 -0.000000 0.119600 0.322261 -0.111308 -228.744176 680.974148 -0.000000 0.412174 0.339996 -0.362885
7.855000 79.375134 -9.888674 -0.000000 0.119338 0.333152 -0.111442 -220.641540 703.386428 -0.000000 0.413138 0.329161 -0.362630
7.860000 74.891094 -7.658248 -0.000000 0.119659 0.343832 -0.111707 -212.733780 722.360763 -0.000000 0.413279 0.318341 -0.362770
7.865000 70.616777 -5.395186 -0.000000 0.120035 0.354750 -0.112362 -204.196005 738.939861 -0.000000 0.412962 0.307586 -0.362915
7.870000 66.567345 -3.329670 -0.000000 0.121760 0.365641 -0.112680 -195.903186 753.484019 -0.000000 0.412125 0.297275 -0.363012
7.875000 62.654020 -1.929960 -0.000000 0.123871 0.376510 -0.112879 -185.647820 766.883882 -0.000000 0.411086 0.286507 -0.363300
7.880000 58.735993 -1.166110 -0.000000 0.126420 0.386876 -0.113321 -176.177027 778.443139 -0.000000 0.409547 0.276228 -0.362488
7.885000 54.620917 -1.467916 -0.000000 0.129546 0.397654 -0.113823 -163.910841 788.711984 -0.000000 0.407336 0.266243 -0.362343
